<svg xmlns="http://www.w3.org/2000/svg" version="1.1" xmlns:xlink="http://www.w3.org/1999/xlink" xmlns:svgjs="http://svgjs.dev/svgjs" width="2000" height="1999" viewBox="0 0 2000 1999"><g transform="matrix(1,0,0,1,-0.431486880466764,-0.4312711370263287)"><svg viewBox="0 0 343 343" data-background-color="#ffffff" preserveAspectRatio="xMidYMid meet" height="1999" width="2000" xmlns="http://www.w3.org/2000/svg" xmlns:xlink="http://www.w3.org/1999/xlink"><g id="tight-bounds" transform="matrix(1,0,0,1,0.0740000000000407,0.07400000000001228)"><svg viewBox="0 0 342.85155851775386 342.85155851775386" height="342.85155851775386" width="342.85155851775386"><g><svg></svg></g><g><svg viewBox="0 0 342.85155851775386 342.85155851775386" height="342.85155851775386" width="342.85155851775386"><g><path d="M0 171.426c0-94.676 76.75-171.426 171.426-171.426 94.676 0 171.426 76.75 171.426 171.426 0 94.676-76.75 171.426-171.426 171.426-94.676 0-171.426-76.75-171.426-171.426zM171.426 328.726c86.875 0 157.3-70.426 157.3-157.3 0-86.875-70.426-157.3-157.3-157.301-86.875 0-157.3 70.426-157.301 157.301 0 86.875 70.426 157.3 157.301 157.3z" data-fill-palette-color="tertiary" fill="#ea3c12" stroke="transparent"></path><ellipse rx="164.56874808852186" ry="164.56874808852186" cx="171.42577925887693" cy="171.42577925887693" fill="#ea3c12" stroke="transparent" stroke-width="0" fill-opacity="1" data-fill-palette-color="tertiary"></ellipse></g><g transform="matrix(1,0,0,1,64.84655864529837,93.10946937481012)"><svg viewBox="0 0 213.1584412271571 156.63261976813362" height="156.63261976813362" width="213.1584412271571"><g><svg viewBox="0 0 213.1584412271571 156.63261976813362" height="156.63261976813362" width="213.1584412271571"><g><svg viewBox="0 0 213.1584412271571 156.63261976813362" height="156.63261976813362" width="213.1584412271571"><g><svg viewBox="0 0 213.1584412271571 156.63261976813362" height="156.63261976813362" width="213.1584412271571"><g id="textblocktransform"><svg viewBox="0 0 213.1584412271571 156.63261976813362" height="156.63261976813362" width="213.1584412271571" id="textblock"><g><svg viewBox="0 0 213.1584412271571 156.63261976813362" height="156.63261976813362" width="213.1584412271571"><g transform="matrix(1,0,0,1,0,0)"><svg width="213.1584412271571" viewBox="1.4500000476837158 -35.75 49.39999771118164 36.29999923706055" height="156.63261976813362" data-palette-color="#ffffff"><path d="M27.2-31.7L25.1-28.05Q24.5-28.75 23.5-29.4 22.5-30.05 21.25-30.58 20-31.1 18.53-31.43 17.05-31.75 15.45-31.75L15.45-31.75Q11.35-31.75 9.4-30.2 7.45-28.65 7.45-25.95L7.45-25.95Q7.45-24.05 8.45-22.95 9.45-21.85 11.53-21.15 13.6-20.45 16.8-19.7L16.8-19.7Q20.5-18.9 23.2-17.75 25.9-16.6 27.35-14.68 28.8-12.75 28.8-9.55L28.8-9.55Q28.8-7 27.83-5.13 26.85-3.25 25.1-2.02 23.35-0.8 21-0.23 18.65 0.35 15.9 0.35L15.9 0.35Q13.2 0.35 10.63-0.23 8.05-0.8 5.75-1.9 3.45-3 1.45-4.65L1.45-4.65 3.6-8.45Q4.4-7.6 5.68-6.78 6.95-5.95 8.58-5.25 10.2-4.55 12.1-4.13 14-3.7 16-3.7L16-3.7Q19.8-3.7 21.9-5.08 24-6.45 24-9.1L24-9.1Q24-11.1 22.83-12.3 21.65-13.5 19.35-14.3 17.05-15.1 13.75-15.9L13.75-15.9Q10.15-16.8 7.7-17.88 5.25-18.95 4.03-20.7 2.8-22.45 2.8-25.25L2.8-25.25Q2.8-28.65 4.45-31 6.1-33.35 9-34.55 11.9-35.75 15.55-35.75L15.55-35.75Q17.95-35.75 20.03-35.25 22.1-34.75 23.9-33.85 25.7-32.95 27.2-31.7L27.2-31.7ZM31.05-1.65L32.2-5.3Q33.15-4.65 34.82-4.08 36.5-3.5 38.8-3.5L38.8-3.5Q41.15-3.5 42.65-4.28 44.15-5.05 44.95-6.63 45.75-8.2 46.05-10.65 46.35-13.1 46.35-16.45L46.35-16.45 46.35-35.5 50.85-35.5 50.85-17.45Q50.85-13.5 50.45-10.2 50.05-6.9 48.85-4.48 47.65-2.05 45.27-0.75 42.9 0.55 38.95 0.55L38.95 0.55Q36.45 0.55 34.55 0 32.65-0.55 31.05-1.65L31.05-1.65Z" opacity="1" transform="matrix(1,0,0,1,0,0)" fill="#ffffff" class="wordmark-text-0" data-fill-palette-color="quaternary" id="text-0"></path></svg></g></svg></g></svg></g></svg></g><g></g></svg></g></svg></g></svg></g></svg></g><defs></defs></svg><rect width="342.85155851775386" height="342.85155851775386" fill="none" stroke="none" visibility="hidden"></rect></g></svg></g></svg>